<?xml version="1.0" encoding="utf-8"?>
<!-- Generator: Adobe Illustrator 22.1.0, SVG Export Plug-In . SVG Version: 6.00 Build 0)  -->
<svg version="1.1" id="Layer_1" xmlns="http://www.w3.org/2000/svg" xmlns:xlink="http://www.w3.org/1999/xlink" x="0px" y="0px"
	 viewBox="0 0 21.6 13" style="enable-background:new 0 0 21.6 13;" xml:space="preserve">
<style type="text/css">
	.st0{fill:#FC390E;stroke:#000000;stroke-linejoin:round;}
	.st1{fill:#FC390E;}
</style>
<g>
	<path id="path3193_1_" class="st0" d="M2.9,3l-1.7,7.5c-0.1,0.3-0.3,0.3-0.6,0.3l0,1.7l2.9,0c0.6,0,0.9-0.3,1.1-1.1L6.4,3H2.9z
		 M3.5,0.5L3,2.4h3.6L7,0.5H3.5z M8,3L7.3,5.7h3.6L11.5,3H8z M7,7.3L6.4,9.9h3.6l0.6-2.6H7z M15.3,0.5L10.4,11h1.8l4.9-10.5H15.3z
		 M19.3,0.5L14.3,11h1.8l4.9-10.5H19.3z"/>
	<path id="path3316_1_" class="st1" d="M2.9,3l-1.7,7.5c-0.1,0.3-0.3,0.3-0.6,0.3l0,1.7l2.9,0c0.6,0,0.9-0.3,1.1-1.1L6.4,3H2.9z
		 M3.5,0.5L3,2.4h3.6L7,0.5H3.5z M8,3L7.3,5.7h3.6L11.5,3H8z M7,7.3L6.4,9.9h3.6l0.6-2.6H7z M15.3,0.5L10.4,11h1.8l4.9-10.5H15.3z
		 M19.3,0.5L14.3,11h1.8l4.9-10.5H19.3z"/>
</g>
</svg>
